<svg xmlns="http://www.w3.org/2000/svg" viewBox="0 0 16 16" width="16" height="16">
  <path fill="currentColor" d="M1.75 2.5a.25.25 0 0 0-.25.25v10.5c0 .138.112.25.25.25h.94a.76.76 0 0 1-.03-.03l-1.11-1.11A1.75 1.75 0 0 1 1 11.25V2.75C1 1.784 1.784 1 2.75 1h8.5c.966 0 1.75.784 1.75 1.75v.586c0 .464-.184.909-.513 1.237l-1.061 1.06c-.07.07-.164.11-.262.11h-.093a.75.75 0 0 0-.75.75v.092c0 .098-.04.193-.11.263l-1.06 1.06a1.75 1.75 0 0 1-1.238.514H2.75A.25.25 0 0 0 2.5 8.5v.75c0 .966.784 1.75 1.75 1.75h3.17c.459 0 .89.18 1.212.502l.505.504a1.766 1.766 0 0 1-.345.034H2.75A1.75 1.75 0 0 1 1 10.25V2.75ZM14.5 2.75v-.25c0-.966-.784-1.75-1.75-1.75h-8.5c-.966 0-1.75.784-1.75 1.75V11.25c0 .519.225.984.582 1.306l1.11 1.11c.322.357.787.582 1.306.582h8.004a1.75 1.75 0 0 0 1.75-1.75V2.75h-.752Z"></path>
  <path fill="currentColor" d="M6.5 7.25a.75.75 0 1 1-1.5 0 .75.75 0 0 1 1.5 0Z"></path>
</svg>
