<svg xmlns="http://www.w3.org/2000/svg" viewBox="0 0 16 16" width="16" height="16">
  <path fill="currentColor" d="M4 1.75C4 .784 4.784 0 5.75 0h5.586c.464 0 .909.184 1.237.513l2.914 2.914c.329.328.513.773.513 1.237v9.586A1.75 1.75 0 0 1 14.25 16h-9.5A1.75 1.75 0 0 1 3 14.25V4.664a.25.25 0 0 1 .073-.177l.823-.823A.25.25 0 0 1 4 3.586Zm.75 0V4h-.5a.25.25 0 0 0-.25.25V14.25c0 .138.112.25.25.25h9.5a.25.25 0 0 0 .25-.25V4.664a.25.25 0 0 0-.073-.177l-2.914-2.914a.25.25 0 0 0-.177-.073H5.75a.25.25 0 0 0-.25.25ZM6 7.25a.75.75 0 0 1 .75-.75h2.5a.75.75 0 0 1 0 1.5h-2.5A.75.75 0 0 1 6 7.25Zm.75 2.25a.75.75 0 0 0 0 1.5h4.5a.75.75 0 0 0 0-1.5h-4.5Z"></path>
</svg>
