<svg xmlns="http://www.w3.org/2000/svg" viewBox="0 0 16 16" width="16" height="16">
  <path fill="#6c8ba0" d="M2.75 0a.75.75 0 0 0 0 1.5h.75v1.25a4.75 4.75 0 0 0 1.9 3.8l.333.25c.134.1.134.3 0 .4l-.333.25a4.75 4.75 0 0 0-1.9 3.8v1.25h-.75a.75.75 0 0 0 0 1.5h10.5a.75.75 0 0 0 0-1.5h-.75v-1.25a4.75 4.75 0 0 0-1.9-3.8l-.333-.25a.25.25 0 0 1 0-.4l.333-.25a4.75 4.75 0 0 0 1.9-3.8V1.5h.75a.75.75 0 0 0 0-1.5H2.75Zm7.25 9v3.25h-4V9a3.25 3.25 0 0 1 1.3-2.6l.333-.25a1.75 1.75 0 0 0 0-2.8l-.333-.25A3.25 3.25 0 0 1 6 1.5V0h4v1.5a3.25 3.25 0 0 1-1.3 2.6l-.333.25a1.75 1.75 0 0 0 0 2.8l.333.25A3.25 3.25 0 0 1 10 9.75Z"/>
</svg>
