<svg xmlns="http://www.w3.org/2000/svg" viewBox="0 0 16 16" width="16" height="16">
  <path fill="#6c8ba0" d="M14.064 0h.186C15.216 0 16 .784 16 1.75v.186a8.752 8.752 0 0 1-2.564 6.186l-.458.459c-.314.314-.641.616-.979.904v3.207c0 .608-.315 1.172-.833 1.49l-2.774 1.707a.749.749 0 0 1-1.11-.418l-.954-3.102a1.214 1.214 0 0 1-.145-.125L3.754 9.816a1.218 1.218 0 0 1-.124-.145L.528 8.717a.749.749 0 0 1-.418-1.11l1.71-2.774A1.748 1.748 0 0 1 3.31 4h3.204c.288-.338.59-.665.904-.979l.459-.458A8.749 8.749 0 0 1 14.064 0ZM8.938 3.623h-.002l-.458.458c-.76.76-1.437 1.598-2.02 2.5l-1.5 2.317 2.143 2.143 2.317-1.5c.902-.583 1.74-1.26 2.499-2.02l.459-.458a7.25 7.25 0 0 0 2.123-5.127V1.75a.25.25 0 0 0-.25-.25h-.186a7.249 7.249 0 0 0-5.125 2.123ZM3.56 14.56c.732.732 2.334 1.045 3.005 1.148a.234.234 0 0 0 .201-.064L7.88 14.53a.75.75 0 1 1 1.06 1.06l-1.172 1.172a1.734 1.734 0 0 1-1.163.476c-.873 0-2.429-.306-3.323-1.2-.895-.895-1.2-2.45-1.2-3.324 0-.431.168-.853.476-1.162L4.03 10.53a.75.75 0 1 1 1.06 1.06l-1.115 1.115a.234.234 0 0 0-.064.201c.103.671.416 2.273 1.148 3.005Zm7.493-4.466a.479.479 0 0 1-.098.21l-.012.013-.071.071a.75.75 0 1 1-1.06-1.06l.071-.071.013-.012a.479.479 0 0 1 .21-.098.467.467 0 0 1 .236 0 .479.479 0 0 1 .21.098l.013.012.071.071a.479.479 0 0 1 .098.21.467.467 0 0 1 0 .236.479.479 0 0 1-.098.21l-.012.013-.071.071a.75.75 0 1 1-1.06-1.06l.071-.071.013-.012a.479.479 0 0 1 .21-.098.467.467 0 0 1 .236 0ZM11.5 1a3.5 3.5 0 1 1 0 7 3.5 3.5 0 0 1 0-7ZM11.5 2a2.5 2.5 0 1 0 0 5 2.5 2.5 0 0 0 0-5Z"/>
</svg>
