<svg xmlns="http://www.w3.org/2000/svg" viewBox="0 0 16 16" width="16" height="16">
  <path fill="currentColor" d="M2 1.75C2 .784 2.784 0 3.75 0h5.586c.464 0 .909.184 1.237.513l2.914 2.914c.329.328.513.773.513 1.237v9.586A1.75 1.75 0 0 1 12.25 16h-8.5A1.75 1.75 0 0 1 2 14.25Zm1.75-.25a.25.25 0 0 0-.25.25v12.5c0 .138.112.25.25.25h8.5a.25.25 0 0 0 .25-.25V6h-2.75A1.75 1.75 0 0 1 8 4.25V1.5Zm6.75.062V4.25c0 .138.112.25.25.25h2.688l-.011-.013-2.914-2.914-.013-.011ZM5.75 7.5a.75.75 0 0 0 0 1.5h4a.75.75 0 0 0 0-1.5h-4Z"/>
</svg>
