<?xml version="1.0" encoding="UTF-8"?>
<svg width="500" height="400" viewBox="0 0 500 400" fill="none" xmlns="http://www.w3.org/2000/svg">
  <rect width="500" height="400" fill="#f8f9fa"/>
  <rect x="100" y="100" width="300" height="200" rx="10" fill="#e9ecef"/>
  
  <rect x="120" y="120" width="80" height="160" rx="5" fill="white" stroke="#343a40"/>
  <rect x="120" y="120" width="80" height="20" rx="5" fill="#343a40"/>
  <text x="160" y="135" font-family="Arial" font-size="10" fill="white" text-anchor="middle">Draft</text>
  <line x1="130" y1="150" x2="190" y2="150" stroke="#adb5bd" stroke-width="1"/>
  <line x1="130" y1="160" x2="190" y2="160" stroke="#adb5bd" stroke-width="1"/>
  <line x1="130" y1="170" x2="190" y2="170" stroke="#adb5bd" stroke-width="1"/>
  <line x1="130" y1="180" x2="190" y2="180" stroke="#adb5bd" stroke-width="1"/>
  <line x1="130" y1="190" x2="190" y2="190" stroke="#adb5bd" stroke-width="1"/>
  <line x1="130" y1="200" x2="190" y2="200" stroke="#adb5bd" stroke-width="1"/>
  <line x1="130" y1="210" x2="170" y2="210" stroke="#adb5bd" stroke-width="1"/>
  <line x1="130" y1="220" x2="180" y2="220" stroke="#adb5bd" stroke-width="1"/>
  <line x1="130" y1="230" x2="160" y2="230" stroke="#adb5bd" stroke-width="1"/>
  <line x1="130" y1="240" x2="175" y2="240" stroke="#adb5bd" stroke-width="1"/>
  <line x1="130" y1="250" x2="190" y2="250" stroke="#adb5bd" stroke-width="1"/>
  <line x1="130" y1="260" x2="180" y2="260" stroke="#adb5bd" stroke-width="1"/>
  
  <rect x="210" y="120" width="80" height="160" rx="5" fill="white" stroke="#343a40"/>
  <rect x="210" y="120" width="80" height="20" rx="5" fill="#343a40"/>
  <text x="250" y="135" font-family="Arial" font-size="10" fill="white" text-anchor="middle">Review</text>
  <rect x="220" y="150" width="60" height="10" rx="2" fill="#f06850" fill-opacity="0.2" stroke="#f06850" stroke-width="1"/>
  <rect x="220" y="170" width="60" height="10" rx="2" fill="#f06850" fill-opacity="0.2" stroke="#f06850" stroke-width="1"/>
  <rect x="220" y="210" width="60" height="10" rx="2" fill="#5da0ff" fill-opacity="0.2" stroke="#5da0ff" stroke-width="1"/>
  <rect x="220" y="230" width="60" height="10" rx="2" fill="#5da0ff" fill-opacity="0.2" stroke="#5da0ff" stroke-width="1"/>
  <line x1="220" y1="190" x2="280" y2="190" stroke="#adb5bd" stroke-width="1"/>
  <line x1="220" y1="200" x2="280" y2="200" stroke="#adb5bd" stroke-width="1"/>
  <line x1="220" y1="250" x2="280" y2="250" stroke="#adb5bd" stroke-width="1"/>
  <line x1="220" y1="260" x2="280" y2="260" stroke="#adb5bd" stroke-width="1"/>
  
  <rect x="300" y="120" width="80" height="160" rx="5" fill="white" stroke="#343a40"/>
  <rect x="300" y="120" width="80" height="20" rx="5" fill="#343a40"/>
  <text x="340" y="135" font-family="Arial" font-size="10" fill="white" text-anchor="middle">Publish</text>
  <rect x="310" y="150" width="60" height="120" rx="2" fill="#dee2e6"/>
  <rect x="320" y="160" width="40" height="5" rx="1" fill="#adb5bd"/>
  <rect x="320" y="170" width="40" height="20" rx="1" fill="#adb5bd"/>
  <rect x="320" y="195" width="40" height="2" rx="1" fill="#adb5bd"/>
  <rect x="320" y="200" width="40" height="2" rx="1" fill="#adb5bd"/>
  <rect x="320" y="205" width="40" height="2" rx="1" fill="#adb5bd"/>
  <rect x="320" y="210" width="40" height="2" rx="1" fill="#adb5bd"/>
  <rect x="320" y="215" width="40" height="2" rx="1" fill="#adb5bd"/>
  <rect x="320" y="220" width="30" height="2" rx="1" fill="#adb5bd"/>
  <rect x="320" y="225" width="35" height="2" rx="1" fill="#adb5bd"/>
  <rect x="320" y="230" width="25" height="2" rx="1" fill="#adb5bd"/>
  <rect x="320" y="235" width="40" height="2" rx="1" fill="#adb5bd"/>
  <rect x="320" y="240" width="40" height="2" rx="1" fill="#adb5bd"/>
  <rect x="320" y="245" width="35" height="2" rx="1" fill="#adb5bd"/>
  <rect x="320" y="250" width="30" height="2" rx="1" fill="#adb5bd"/>
  <rect x="320" y="255" width="40" height="2" rx="1" fill="#adb5bd"/>
  
  <line x1="200" y1="200" x2="210" y2="200" stroke="#343a40" stroke-width="2" stroke-dasharray="5 5"/>
  <line x1="290" y1="200" x2="300" y2="200" stroke="#343a40" stroke-width="2" stroke-dasharray="5 5"/>
  
  <circle cx="160" cy="320" r="20" fill="#adb5bd"/>
  <text x="160" y="325" font-family="Arial" font-size="12" fill="white" text-anchor="middle">AI</text>
  <line x1="160" y1="300" x2="160" y2="280" stroke="#343a40" stroke-width="2"/>
  
  <circle cx="250" cy="320" r="20" fill="#adb5bd"/>
  <text x="250" y="325" font-family="Arial" font-size="12" fill="white" text-anchor="middle">AI</text>
  <line x1="250" y1="300" x2="250" y2="280" stroke="#343a40" stroke-width="2"/>
  
  <circle cx="340" cy="320" r="20" fill="#adb5bd"/>
  <text x="340" y="325" font-family="Arial" font-size="12" fill="white" text-anchor="middle">AI</text>
  <line x1="340" y1="300" x2="340" y2="280" stroke="#343a40" stroke-width="2"/>
</svg>