<?xml version="1.0" encoding="UTF-8" standalone="no"?>
<svg width="64" height="64" viewBox="0 0 64 64" fill="none" xmlns="http://www.w3.org/2000/svg">
  <!-- Background shape -->
  <rect width="64" height="64" fill="none"/>
  
  <!-- Main cloud -->
  <path d="M53 41H17C12.0294 41 8 36.9706 8 32C8 27.0294 12.0294 23 17 23C17.3399 23 17.6747 23.0185 18.0035 23.055C18.001 23.0368 18 23.0184 18 23C18 16.3726 23.3726 11 30 11C35.2882 11 39.7763 14.4449 41.425 19.2919C42.5849 18.4838 43.9908 18 45.5 18C49.6421 18 53 21.3579 53 25.5C53 25.6747 52.9933 25.8479 52.9801 26.0194C56.8061 26.5292 59.75 29.8403 59.75 33.875C59.75 38.1571 56.282 41.625 52 41.625" fill="#f0f5ff"/>
  
  <!-- Cloud outline -->
  <path d="M53 41H17C12.0294 41 8 36.9706 8 32C8 27.0294 12.0294 23 17 23C17.3399 23 17.6747 23.0185 18.0035 23.055C18.001 23.0368 18 23.0184 18 23C18 16.3726 23.3726 11 30 11C35.2882 11 39.7763 14.4449 41.425 19.2919C42.5849 18.4838 43.9908 18 45.5 18C49.6421 18 53 21.3579 53 25.5C53 25.6747 52.9933 25.8479 52.9801 26.0194C56.8061 26.5292 59.75 29.8403 59.75 33.875C59.75 38.1571 56.282 41.625 52 41.625" stroke="#4a6baf" stroke-width="2.5" stroke-linecap="round" stroke-linejoin="round"/>
  
  <!-- Data elements -->
  <rect x="18" y="35" width="28" height="18" rx="3" fill="#90b1e2" fill-opacity="0.4" stroke="#4a6baf" stroke-width="1.5"/>
  
  <!-- Database icon inside -->
  <ellipse cx="32" cy="38" rx="10" ry="2" fill="#90b1e2" fill-opacity="0.5" stroke="#4a6baf" stroke-width="1.5"/>
  <path d="M22 38V47C22 48.1046 26.4772 49 32 49C37.5228 49 42 48.1046 42 47V38" stroke="#4a6baf" stroke-width="1.5"/>
  <path d="M22 42C22 43.1046 26.4772 44 32 44C37.5228 44 42 43.1046 42 42" stroke="#4a6baf" stroke-width="1"/>
  
  <!-- Connection lines -->
  <path d="M24 24L28 28" stroke="#4a6baf" stroke-width="1" stroke-linecap="round"/>
  <path d="M40 24L36 28" stroke="#4a6baf" stroke-width="1" stroke-linecap="round"/>
  <path d="M32 20V28" stroke="#4a6baf" stroke-width="1" stroke-linecap="round"/>
</svg>