<?xml version="1.0" encoding="UTF-8" standalone="no"?>
<svg width="64" height="64" viewBox="0 0 64 64" fill="none" xmlns="http://www.w3.org/2000/svg">
  <!-- Syringe body outline -->
  <path d="M22 39h20c1.1 0 2 0.9 2 2v10c0 1.1-0.9 2-2 2h-20c-1.1 0-2-0.9-2-2v-10c0-1.1 0.9-2 2-2z" stroke="#4a6baf" stroke-width="2" fill="#eef4ff"/>
  
  <!-- Syringe barrel outline -->
  <path d="M27 11h10c0.55 0 1 0.45 1 1v28h-12v-28c0-0.55 0.45-1 1-1z" stroke="#4a6baf" stroke-width="2" fill="#eef4ff"/>
  
  <!-- Plunger top -->
  <circle cx="32" cy="8" r="4" fill="#4a6baf"/>
  <circle cx="32" cy="8" r="2" fill="#ffffff"/>
  
  <!-- Syringe needle -->
  <path d="M32 53L32 60" stroke="#4a6baf" stroke-width="2" stroke-linecap="round"/>
  
  <!-- Liquid inside barrel -->
  <rect x="28" y="20" width="8" height="19" rx="0" fill="#90b1e2" fill-opacity="0.7"/>
  
  <!-- Measurement marks on barrel -->
  <path d="M27 15L37 15" stroke="#4a6baf" stroke-width="1"/>
  <path d="M27 20L37 20" stroke="#4a6baf" stroke-width="1"/>
  <path d="M27 25L37 25" stroke="#4a6baf" stroke-width="1"/>
  <path d="M27 30L37 30" stroke="#4a6baf" stroke-width="1"/>
  <path d="M27 35L37 35" stroke="#4a6baf" stroke-width="1"/>
  
  <!-- Code brackets in the background -->
  <path d="M15 35L7 27L15 19" stroke="#90b1e2" stroke-width="2" stroke-linecap="round" stroke-linejoin="round"/>
  <path d="M49 35L57 27L49 19" stroke="#90b1e2" stroke-width="2" stroke-linecap="round" stroke-linejoin="round"/>
  
  <!-- Thin diagonal code line -->
  <path d="M20 45L44 25" stroke="#90b1e2" stroke-width="1" stroke-linecap="round" stroke-dasharray="2 2"/>
</svg>