<svg xmlns="http://www.w3.org/2000/svg" viewBox="0 0 100 100" width="100" height="100">
  <defs>
    <linearGradient id="gearGradient" x1="0%" y1="0%" x2="100%" y2="100%">
      <stop offset="0%" style="stop-color:#6b8dd6;stop-opacity:0.1" />
      <stop offset="100%" style="stop-color:#4a6baf;stop-opacity:0.1" />
    </linearGradient>
  </defs>
  
  <!-- Outer gear -->
  <path d="M 50 10 
           L 54 18 L 62 14 L 65 22 L 74 22 L 75 30 L 82 34 L 79 42 L 86 48 L 82 56 L 88 62 L 82 68 L 85 76 L 78 80 L 78 88 L 70 89 L 66 96 L 58 93 L 52 99 L 46 93 L 38 96 L 34 89 L 26 88 L 25 80 L 18 76 L 21 68 L 14 62 L 18 56 L 12 48 L 18 42 L 15 34 L 22 30 L 22 22 L 30 21 L 34 14 L 42 17 L 48 10 Z" 
        fill="#ffffff" 
        stroke="#4a6baf" 
        stroke-width="2"
        stroke-linejoin="round"/>
  
  <!-- Inner circle -->
  <circle cx="50" cy="50" r="18" fill="#f0f4ff" stroke="#4a6baf" stroke-width="2"/>
  
  <!-- Center hub -->
  <circle cx="50" cy="50" r="8" fill="#ffffff" stroke="#4a6baf" stroke-width="2"/>
  
  <!-- Gear teeth highlights -->
  <path d="M 50 10 L 54 18 M 62 14 L 65 22 M 74 22 L 75 30 M 82 34 L 79 42 M 86 48 L 82 56 M 88 62 L 82 68 M 85 76 L 78 80 M 78 88 L 70 89" 
        fill="none" 
        stroke="#6b8dd6" 
        stroke-width="1" 
        opacity="0.3"/>
  
  <!-- Inner gear details -->
  <circle cx="50" cy="35" r="3" fill="#6b8dd6" opacity="0.5"/>
  <circle cx="65" cy="50" r="3" fill="#6b8dd6" opacity="0.5"/>
  <circle cx="50" cy="65" r="3" fill="#6b8dd6" opacity="0.5"/>
  <circle cx="35" cy="50" r="3" fill="#6b8dd6" opacity="0.5"/>
  
  <!-- Gradient overlay -->
  <circle cx="50" cy="50" r="40" fill="url(#gearGradient)"/>
</svg>