<?xml version="1.0" encoding="UTF-8"?>
<svg width="500" height="400" viewBox="0 0 500 400" fill="none" xmlns="http://www.w3.org/2000/svg">
  <rect width="500" height="400" fill="#f8f9fa"/>
  <rect x="50" y="50" width="400" height="300" rx="5" fill="white" stroke="#343a40" stroke-width="2"/>
  <rect x="50" y="50" width="400" height="30" rx="5" fill="#343a40"/>
  <circle cx="70" cy="65" r="5" fill="#ff5f56"/>
  <circle cx="90" cy="65" r="5" fill="#ffbd2e"/>
  <circle cx="110" cy="65" r="5" fill="#27c93f"/>
  <rect x="70" y="100" width="360" height="10" rx="2" fill="#e9ecef"/>
  <rect x="70" y="120" width="280" height="10" rx="2" fill="#e9ecef"/>
  <rect x="70" y="140" width="320" height="10" rx="2" fill="#e9ecef"/>
  <rect x="70" y="160" width="200" height="10" rx="2" fill="#e9ecef"/>
  <rect x="70" y="180" width="340" height="10" rx="2" fill="#e9ecef"/>
  <rect x="70" y="200" width="260" height="10" rx="2" fill="#e9ecef"/>
  <rect x="70" y="220" width="300" height="10" rx="2" fill="#e9ecef"/>
  <rect x="70" y="240" width="350" height="10" rx="2" fill="#e9ecef"/>
  <rect x="70" y="260" width="230" height="10" rx="2" fill="#e9ecef"/>
  <rect x="70" y="280" width="320" height="10" rx="2" fill="#e9ecef"/>
  <rect x="70" y="300" width="280" height="10" rx="2" fill="#e9ecef"/>
</svg>