<?xml version="1.0" encoding="UTF-8"?>
<svg width="500" height="400" viewBox="0 0 500 400" fill="none" xmlns="http://www.w3.org/2000/svg">
  <rect width="500" height="400" fill="#f8f9fa"/>
  <circle cx="250" cy="200" r="150" fill="#e9ecef"/>
  <rect x="150" y="100" width="200" height="50" rx="10" fill="#343a40"/>
  <text x="250" y="130" font-family="Arial" font-size="16" fill="white" text-anchor="middle">Research Question</text>
  <rect x="150" y="175" width="200" height="50" rx="10" fill="#343a40"/>
  <text x="250" y="205" font-family="Arial" font-size="16" fill="white" text-anchor="middle">Data Analysis</text>
  <rect x="150" y="250" width="200" height="50" rx="10" fill="#343a40"/>
  <text x="250" y="280" font-family="Arial" font-size="16" fill="white" text-anchor="middle">Scientific Insights</text>
  <line x1="250" y1="150" x2="250" y2="175" stroke="#343a40" stroke-width="2" stroke-dasharray="5 5"/>
  <line x1="250" y1="225" x2="250" y2="250" stroke="#343a40" stroke-width="2" stroke-dasharray="5 5"/>
  <circle cx="250" cy="150" r="5" fill="#343a40"/>
  <circle cx="250" cy="175" r="5" fill="#343a40"/>
  <circle cx="250" cy="225" r="5" fill="#343a40"/>
  <circle cx="250" cy="250" r="5" fill="#343a40"/>
  <circle cx="100" cy="125" r="25" fill="#adb5bd"/>
  <text x="100" y="130" font-family="Arial" font-size="12" fill="white" text-anchor="middle">AI</text>
  <circle cx="100" cy="200" r="25" fill="#adb5bd"/>
  <text x="100" y="205" font-family="Arial" font-size="12" fill="white" text-anchor="middle">AI</text>
  <circle cx="100" cy="275" r="25" fill="#adb5bd"/>
  <text x="100" y="280" font-family="Arial" font-size="12" fill="white" text-anchor="middle">AI</text>
  <line x1="125" y1="125" x2="150" y2="125" stroke="#343a40" stroke-width="2"/>
  <line x1="125" y1="200" x2="150" y2="200" stroke="#343a40" stroke-width="2"/>
  <line x1="125" y1="275" x2="150" y2="275" stroke="#343a40" stroke-width="2"/>
  <circle cx="400" cy="125" r="25" fill="#adb5bd"/>
  <text x="400" y="130" font-family="Arial" font-size="12" fill="white" text-anchor="middle">AI</text>
  <circle cx="400" cy="200" r="25" fill="#adb5bd"/>
  <text x="400" y="205" font-family="Arial" font-size="12" fill="white" text-anchor="middle">AI</text>
  <circle cx="400" cy="275" r="25" fill="#adb5bd"/>
  <text x="400" y="280" font-family="Arial" font-size="12" fill="white" text-anchor="middle">AI</text>
  <line x1="350" y1="125" x2="375" y2="125" stroke="#343a40" stroke-width="2"/>
  <line x1="350" y1="200" x2="375" y2="200" stroke="#343a40" stroke-width="2"/>
  <line x1="350" y1="275" x2="375" y2="275" stroke="#343a40" stroke-width="2"/>
</svg>