<?xml version="1.0" encoding="UTF-8" standalone="no"?>
<svg width="64" height="64" viewBox="0 0 64 64" fill="none" xmlns="http://www.w3.org/2000/svg">
  <!-- Data server nodes -->
  <rect x="12" y="34" width="40" height="20" rx="2" fill="#f0f5ff" stroke="#4a6baf" stroke-width="2"/>
  <line x1="12" y1="42" x2="52" y2="42" stroke="#4a6baf" stroke-width="1.5"/>
  <line x1="32" y1="34" x2="32" y2="54" stroke="#4a6baf" stroke-width="1.5"/>
  
  <!-- Status indicators -->
  <circle cx="18" cy="38" r="1.5" fill="#4a6baf"/>
  <circle cx="23" cy="38" r="1.5" fill="#4a6baf"/>
  <circle cx="18" cy="48" r="1.5" fill="#4a6baf"/>
  <circle cx="23" cy="48" r="1.5" fill="#4a6baf"/>
  <circle cx="41" cy="38" r="1.5" fill="#4a6baf"/>
  <circle cx="46" cy="38" r="1.5" fill="#4a6baf"/>
  <circle cx="41" cy="48" r="1.5" fill="#4a6baf"/>
  <circle cx="46" cy="48" r="1.5" fill="#4a6baf"/>
  
  <!-- Cloud outline -->
  <path d="M52 32H12C12 32 9 32 9 28.5C9 25 12 24 14 24C14 24 14.5 18 21 18C27.5 18 29 24 29 24C29 24 32 22 35 24C38 26 38 28 38 28C38 28 43 26.5 46 28.5C49 30.5 48 32 48 32" stroke="#4a6baf" stroke-width="2.5" stroke-linecap="round" stroke-linejoin="round"/>
  
  <!-- Cloud connections -->
  <path d="M21 18C21 18 24 14 28 12" stroke="#4a6baf" stroke-width="1.5" stroke-linecap="round"/>
  <path d="M28 12C28 12 33 10 38 12" stroke="#4a6baf" stroke-width="1.5" stroke-linecap="round"/>
  <path d="M38 12C38 12 42 14 46 16" stroke="#4a6baf" stroke-width="1.5" stroke-linecap="round"/>
  
  <!-- Connection lines -->
  <line x1="22" y1="24" x2="22" y2="32" stroke="#90b1e2" stroke-width="1.5" stroke-dasharray="2 1"/>
  <line x1="32" y1="24" x2="32" y2="34" stroke="#90b1e2" stroke-width="1.5" stroke-dasharray="2 1"/>
  <line x1="42" y1="28" x2="42" y2="32" stroke="#90b1e2" stroke-width="1.5" stroke-dasharray="2 1"/>
</svg>