<?xml version="1.0" encoding="UTF-8" standalone="no"?>
<svg width="1600" height="400" viewBox="0 0 1600 400" xmlns="http://www.w3.org/2000/svg">
  <!-- SciTeX Logo -->
  <g fill="#475569">
    <!-- S -->
    <path d="M 50 150 C 50 100, 80 60, 140 60 L 220 60 C 240 60, 260 70, 260 90 C 260 100, 250 110, 240 115 L 160 130 C 100 140, 60 170, 60 220 C 60 270, 100 310, 160 310 L 240 310 C 280 310, 310 280, 310 240 L 280 240 C 280 260, 260 280, 240 280 L 160 280 C 120 280, 90 250, 90 220 C 90 190, 110 170, 140 165 L 220 150 C 280 140, 290 110, 290 90 C 290 50, 260 30, 220 30 L 140 30 C 60 30, 20 80, 20 150 Z"/>
    
    <!-- c -->
    <path d="M 400 180 C 400 140, 430 110, 470 110 L 520 110 L 520 140 L 470 140 C 450 140, 430 160, 430 180 L 430 240 C 430 260, 450 280, 470 280 L 520 280 L 520 310 L 470 310 C 430 310, 400 280, 400 240 Z"/>
    
    <!-- i -->
    <rect x="580" y="110" width="30" height="200" rx="0"/>
    <circle cx="595" cy="70" r="20"/>
    
    <!-- T -->
    <rect x="680" y="30" width="300" height="30"/>
    <rect x="815" y="30" width="30" height="280"/>
    
    <!-- e -->
    <path d="M 1040 180 C 1040 140, 1070 110, 1110 110 L 1160 110 C 1200 110, 1230 140, 1230 180 L 1230 195 L 1070 195 L 1070 240 C 1070 260, 1090 280, 1110 280 L 1160 280 L 1160 310 L 1110 310 C 1070 310, 1040 280, 1040 240 Z M 1070 165 L 1200 165 C 1200 150, 1180 140, 1160 140 L 1110 140 C 1090 140, 1070 150, 1070 165 Z"/>
    
    <!-- X -->
    <path d="M 1320 110 L 1420 210 L 1520 110 L 1550 110 L 1435 225 L 1550 340 L 1520 340 L 1420 240 L 1320 340 L 1290 340 L 1405 225 L 1290 110 Z"/>
  </g>
</svg>